<svg xmlns="http://www.w3.org/2000/svg" viewBox="0 0 512 512">
  <rect width="512" height="512" rx="90" fill="#1a4010"/>
  <rect x="247" y="36" width="18" height="52" rx="9" fill="white" opacity="0.92" transform="rotate(0.0 256 256)"/><rect x="247" y="36" width="18" height="52" rx="9" fill="white" opacity="0.92" transform="rotate(9.0 256 256)"/><rect x="247" y="36" width="18" height="52" rx="9" fill="white" opacity="0.92" transform="rotate(18.0 256 256)"/><rect x="247" y="36" width="18" height="52" rx="9" fill="white" opacity="0.92" transform="rotate(27.0 256 256)"/><rect x="247" y="36" width="18" height="52" rx="9" fill="white" opacity="0.92" transform="rotate(36.0 256 256)"/><rect x="247" y="36" width="18" height="52" rx="9" fill="white" opacity="0.92" transform="rotate(45.0 256 256)"/><rect x="247" y="36" width="18" height="52" rx="9" fill="white" opacity="0.92" transform="rotate(54.0 256 256)"/><rect x="247" y="36" width="18" height="52" rx="9" fill="white" opacity="0.92" transform="rotate(63.0 256 256)"/><rect x="247" y="36" width="18" height="52" rx="9" fill="white" opacity="0.92" transform="rotate(72.0 256 256)"/><rect x="247" y="36" width="18" height="52" rx="9" fill="white" opacity="0.92" transform="rotate(81.0 256 256)"/><rect x="247" y="36" width="18" height="52" rx="9" fill="white" opacity="0.92" transform="rotate(90.0 256 256)"/><rect x="247" y="36" width="18" height="52" rx="9" fill="white" opacity="0.92" transform="rotate(99.0 256 256)"/><rect x="247" y="36" width="18" height="52" rx="9" fill="white" opacity="0.92" transform="rotate(108.0 256 256)"/><rect x="247" y="36" width="18" height="52" rx="9" fill="white" opacity="0.92" transform="rotate(117.0 256 256)"/><rect x="247" y="36" width="18" height="52" rx="9" fill="white" opacity="0.92" transform="rotate(126.0 256 256)"/><rect x="247" y="36" width="18" height="52" rx="9" fill="white" opacity="0.92" transform="rotate(135.0 256 256)"/><rect x="247" y="36" width="18" height="52" rx="9" fill="white" opacity="0.92" transform="rotate(144.0 256 256)"/><rect x="247" y="36" width="18" height="52" rx="9" fill="white" opacity="0.92" transform="rotate(153.0 256 256)"/><rect x="247" y="36" width="18" height="52" rx="9" fill="white" opacity="0.92" transform="rotate(162.0 256 256)"/><rect x="247" y="36" width="18" height="52" rx="9" fill="white" opacity="0.92" transform="rotate(171.0 256 256)"/><rect x="247" y="36" width="18" height="52" rx="9" fill="white" opacity="0.92" transform="rotate(180.0 256 256)"/><rect x="247" y="36" width="18" height="52" rx="9" fill="white" opacity="0.92" transform="rotate(189.0 256 256)"/><rect x="247" y="36" width="18" height="52" rx="9" fill="white" opacity="0.92" transform="rotate(198.0 256 256)"/><rect x="247" y="36" width="18" height="52" rx="9" fill="white" opacity="0.92" transform="rotate(207.0 256 256)"/><rect x="247" y="36" width="18" height="52" rx="9" fill="white" opacity="0.92" transform="rotate(216.0 256 256)"/><rect x="247" y="36" width="18" height="52" rx="9" fill="white" opacity="0.92" transform="rotate(225.0 256 256)"/><rect x="247" y="36" width="18" height="52" rx="9" fill="white" opacity="0.92" transform="rotate(234.0 256 256)"/><rect x="247" y="36" width="18" height="52" rx="9" fill="white" opacity="0.92" transform="rotate(243.0 256 256)"/><rect x="247" y="36" width="18" height="52" rx="9" fill="white" opacity="0.92" transform="rotate(252.0 256 256)"/><rect x="247" y="36" width="18" height="52" rx="9" fill="white" opacity="0.92" transform="rotate(261.0 256 256)"/><rect x="247" y="36" width="18" height="52" rx="9" fill="white" opacity="0.92" transform="rotate(270.0 256 256)"/><rect x="247" y="36" width="18" height="52" rx="9" fill="white" opacity="0.92" transform="rotate(279.0 256 256)"/><rect x="247" y="36" width="18" height="52" rx="9" fill="white" opacity="0.92" transform="rotate(288.0 256 256)"/><rect x="247" y="36" width="18" height="52" rx="9" fill="white" opacity="0.92" transform="rotate(297.0 256 256)"/><rect x="247" y="36" width="18" height="52" rx="9" fill="white" opacity="0.92" transform="rotate(306.0 256 256)"/><rect x="247" y="36" width="18" height="52" rx="9" fill="white" opacity="0.92" transform="rotate(315.0 256 256)"/><rect x="247" y="36" width="18" height="52" rx="9" fill="white" opacity="0.92" transform="rotate(324.0 256 256)"/><rect x="247" y="36" width="18" height="52" rx="9" fill="white" opacity="0.92" transform="rotate(333.0 256 256)"/><rect x="247" y="36" width="18" height="52" rx="9" fill="white" opacity="0.92" transform="rotate(342.0 256 256)"/><rect x="247" y="36" width="18" height="52" rx="9" fill="white" opacity="0.92" transform="rotate(351.0 256 256)"/>
  <path d="M 222,170 L 222,330 L 302,330 L 302,305 L 248,305 L 248,170 Z" fill="white"/>
</svg>
